<?xml version="1.0" encoding="UTF-8" standalone="no"?>
<!-- Created with Inkscape (http://www.inkscape.org/) -->

<svg
   xmlns:dc="http://purl.org/dc/elements/1.1/"
   xmlns:cc="http://creativecommons.org/ns#"
   xmlns:rdf="http://www.w3.org/1999/02/22-rdf-syntax-ns#"
   xmlns:svg="http://www.w3.org/2000/svg"
   xmlns="http://www.w3.org/2000/svg"
   xmlns:sodipodi="http://sodipodi.sourceforge.net/DTD/sodipodi-0.dtd"
   xmlns:inkscape="http://www.inkscape.org/namespaces/inkscape"
   width="44.808289mm"
   height="43.956886mm"
   viewBox="0 0 44.808289 43.956886"
   version="1.1"
   id="svg8"
   inkscape:version="0.92.4 (5da689c313, 2019-01-14)"
   sodipodi:docname="Summit-Main.svg">
  <defs
     id="defs2">
    <clipPath
       id="clip1">
      <path
         id="path1747"
         d="m 386,479 h 90.14844 v 61 H 386 Z m 0,0"
         inkscape:connector-curvature="0" />
    </clipPath>
    <clipPath
       id="clip2">
      <path
         id="path1750"
         d="m 346,552 h 111 v 31.92187 H 346 Z m 0,0"
         inkscape:connector-curvature="0" />
    </clipPath>
  </defs>
  <sodipodi:namedview
     id="base"
     pagecolor="#ffffff"
     bordercolor="#666666"
     borderopacity="1.0"
     inkscape:pageopacity="0.0"
     inkscape:pageshadow="2"
     inkscape:zoom="1.4"
     inkscape:cx="-3.0008053"
     inkscape:cy="68.372121"
     inkscape:document-units="mm"
     inkscape:current-layer="layer1"
     showgrid="false"
     fit-margin-top="0"
     fit-margin-left="0"
     fit-margin-right="0"
     fit-margin-bottom="0"
     inkscape:window-width="1918"
     inkscape:window-height="1038"
     inkscape:window-x="0"
     inkscape:window-y="0"
     inkscape:window-maximized="1" />
  <metadata
     id="metadata5">
    <rdf:RDF>
      <cc:Work
         rdf:about="">
        <dc:format>image/svg+xml</dc:format>
        <dc:type
           rdf:resource="http://purl.org/dc/dcmitype/StillImage" />
        <dc:title></dc:title>
      </cc:Work>
    </rdf:RDF>
  </metadata>
  <g
     inkscape:label="Layer 1"
     inkscape:groupmode="layer"
     id="layer1"
     transform="translate(314.64089,-92.172293)">
    <path
       inkscape:connector-curvature="0"
       style="fill:#7fb026;fill-opacity:1;fill-rule:nonzero;stroke:none;stroke-width:0.35277778"
       d="m -311.42179,134.59106 c -0.007,0.0138 -0.0152,0.0234 -0.0248,0.0303 -0.008,0.007 -0.0193,0.01 -0.0344,0.01 -0.0152,0 -0.0317,-0.007 -0.051,-0.0221 -0.0193,-0.0124 -0.0441,-0.0289 -0.073,-0.0455 -0.0289,-0.0179 -0.0634,-0.0331 -0.10335,-0.0469 -0.04,-0.0138 -0.0896,-0.0207 -0.1447,-0.0207 -0.0537,0 -0.10197,0.007 -0.14194,0.0207 -0.0413,0.0138 -0.0744,0.0331 -0.10197,0.0579 -0.0276,0.0234 -0.0482,0.0524 -0.062,0.0854 -0.0138,0.0331 -0.0207,0.0689 -0.0207,0.10748 0,0.0496 0.0124,0.091 0.0372,0.12265 0.0248,0.0317 0.0565,0.0593 0.0978,0.0827 0.04,0.0234 0.0854,0.0427 0.13781,0.0593 0.051,0.0165 0.10335,0.0345 0.15847,0.0537 0.0537,0.0179 0.10611,0.0386 0.1571,0.062 0.0524,0.0234 0.0978,0.0524 0.1378,0.0882 0.04,0.0358 0.073,0.0785 0.0978,0.13091 0.0248,0.0524 0.0372,0.11438 0.0372,0.19017 0,0.0786 -0.0138,0.15296 -0.0413,0.22324 -0.0262,0.0689 -0.0661,0.12954 -0.11851,0.18052 -0.0524,0.0524 -0.11576,0.0937 -0.19155,0.12265 -0.0758,0.0303 -0.16123,0.0455 -0.25769,0.0455 -0.0579,0 -0.11438,-0.007 -0.16812,-0.0179 -0.0551,-0.011 -0.10611,-0.0276 -0.15434,-0.0482 -0.0482,-0.0207 -0.0937,-0.0455 -0.13505,-0.0744 -0.0427,-0.0289 -0.0813,-0.0606 -0.11438,-0.0965 l 0.0744,-0.12403 c 0.007,-0.01 0.0165,-0.0179 0.0262,-0.0248 0.011,-0.005 0.022,-0.01 0.0344,-0.01 0.0179,0 0.0386,0.01 0.062,0.0289 0.0234,0.0179 0.051,0.0386 0.0854,0.0606 0.0344,0.022 0.0744,0.0427 0.12264,0.0606 0.0482,0.0179 0.10611,0.0275 0.17364,0.0275 0.0565,0 0.10611,-0.007 0.15158,-0.0221 0.0441,-0.0152 0.0813,-0.0372 0.113,-0.0648 0.0303,-0.0275 0.0537,-0.0606 0.0689,-0.10059 0.0165,-0.0386 0.0248,-0.0827 0.0248,-0.13092 0,-0.0537 -0.0124,-0.0978 -0.0372,-0.13229 -0.0248,-0.0331 -0.0579,-0.062 -0.0978,-0.0841 -0.04,-0.0234 -0.0854,-0.0427 -0.1378,-0.0579 -0.051,-0.0165 -0.10336,-0.0331 -0.1571,-0.0496 -0.0551,-0.0179 -0.10749,-0.0372 -0.15847,-0.0606 -0.051,-0.0221 -0.0978,-0.0524 -0.13781,-0.0882 -0.04,-0.0372 -0.073,-0.0827 -0.0965,-0.13642 -0.0248,-0.0551 -0.0372,-0.12264 -0.0372,-0.20395 0,-0.0634 0.0124,-0.1254 0.0372,-0.18604 0.0248,-0.0606 0.062,-0.113 0.10886,-0.15985 0.0482,-0.0455 0.10749,-0.0827 0.17777,-0.11162 0.0703,-0.0275 0.15021,-0.0413 0.24116,-0.0413 0.10197,0 0.1943,0.0152 0.27836,0.0469 0.0841,0.0331 0.15848,0.0786 0.22187,0.13919 l -0.0648,0.12405"
       id="path1805" />
    <path
       inkscape:connector-curvature="0"
       style="fill:#7fb026;fill-opacity:1;fill-rule:nonzero;stroke:none;stroke-width:0.35277778"
       d="m -308.3529,134.3003 v 0.21222 h -0.85852 v 0.58153 h 0.69178 v 0.20395 h -0.69178 v 0.59807 h 0.8599 l -0.001,0.21221 h -1.11897 v -1.80798 h 1.11897"
       id="path1807" />
    <path
       inkscape:connector-curvature="0"
       style="fill:#7fb026;fill-opacity:1;fill-rule:nonzero;stroke:none;stroke-width:0.35277778"
       d="m -305.28125,135.72519 c 0.0138,0 0.0262,0.006 0.0372,0.0165 l 0.10336,0.11299 c -0.0744,0.0868 -0.16399,0.15434 -0.2701,0.2012 -0.10611,0.0482 -0.23289,0.073 -0.38172,0.073 -0.13091,0 -0.24942,-0.0234 -0.35553,-0.0689 -0.10749,-0.0455 -0.19706,-0.10886 -0.27285,-0.19017 -0.0744,-0.0813 -0.13367,-0.17914 -0.17364,-0.29214 -0.0413,-0.113 -0.0606,-0.2384 -0.0606,-0.37345 0,-0.13643 0.0207,-0.26182 0.0634,-0.37483 0.0427,-0.11299 0.10335,-0.21083 0.1819,-0.29076 0.0786,-0.0813 0.17088,-0.14469 0.27974,-0.19017 0.10887,-0.0455 0.22876,-0.0675 0.35967,-0.0675 0.12816,0 0.24254,0.0207 0.34176,0.062 0.10059,0.0427 0.18741,0.0978 0.26044,0.16812 l -0.0854,0.12127 c -0.006,0.008 -0.0124,0.0152 -0.0207,0.0207 -0.008,0.006 -0.0193,0.008 -0.0331,0.008 -0.0165,0 -0.0358,-0.008 -0.0565,-0.0248 -0.022,-0.0152 -0.0496,-0.0331 -0.0841,-0.0524 -0.0358,-0.0207 -0.0785,-0.0386 -0.13091,-0.0538 -0.0524,-0.0165 -0.11575,-0.0248 -0.19292,-0.0248 -0.0896,0 -0.17364,0.0165 -0.24943,0.0482 -0.0758,0.0317 -0.14194,0.0772 -0.19568,0.1378 -0.0551,0.0593 -0.0978,0.13229 -0.12816,0.21911 -0.0303,0.0868 -0.0441,0.18328 -0.0441,0.29352 0,0.11024 0.0152,0.20946 0.0469,0.29628 0.0317,0.0868 0.0744,0.15985 0.12953,0.21911 0.0551,0.0606 0.11989,0.10611 0.19431,0.1378 0.0744,0.0303 0.15571,0.0469 0.24115,0.0469 0.0524,0 0.0992,-0.003 0.14194,-0.01 0.0413,-0.007 0.0813,-0.0152 0.11576,-0.0289 0.0358,-0.0124 0.0703,-0.0289 0.10059,-0.0482 0.0317,-0.0207 0.062,-0.0441 0.0937,-0.0717 0.007,-0.007 0.0138,-0.011 0.0207,-0.0152 0.007,-0.004 0.0152,-0.005 0.0234,-0.005"
       id="path1809" />
    <path
       inkscape:connector-curvature="0"
       style="fill:#7fb026;fill-opacity:1;fill-rule:nonzero;stroke:none;stroke-width:0.35277778"
       d="m -302.65196,135.9002 c 0.073,0 0.13918,-0.0124 0.19568,-0.0372 0.0579,-0.0248 0.10611,-0.0592 0.14608,-0.10335 0.04,-0.0455 0.0703,-0.0978 0.0923,-0.15985 0.0207,-0.062 0.0303,-0.12954 0.0303,-0.20395 v -1.09554 h 0.26045 v 1.09554 c 0,0.10473 -0.0179,0.20119 -0.051,0.29214 -0.0331,0.0896 -0.0813,0.16674 -0.14331,0.23289 -0.062,0.0648 -0.13781,0.11576 -0.22738,0.15296 -0.0909,0.0372 -0.19155,0.0551 -0.30317,0.0551 -0.113,0 -0.21359,-0.0179 -0.30317,-0.0551 -0.0896,-0.0372 -0.16536,-0.0882 -0.22737,-0.15296 -0.0634,-0.0662 -0.11024,-0.14332 -0.1447,-0.23289 -0.0331,-0.091 -0.0496,-0.18741 -0.0496,-0.29214 v -1.09554 h 0.25907 v 1.09554 c 0,0.073 0.011,0.14056 0.0317,0.20257 0.0207,0.062 0.051,0.11576 0.091,0.15985 0.04,0.0455 0.0896,0.0799 0.14607,0.10473 0.0593,0.0248 0.12403,0.0372 0.19706,0.0372"
       id="path1811" />
    <path
       inkscape:connector-curvature="0"
       style="fill:#7fb026;fill-opacity:1;fill-rule:nonzero;stroke:none;stroke-width:0.35277778"
       d="m -299.72776,135.1726 h 0.24942 c 0.0703,0 0.13092,-0.008 0.18466,-0.0262 0.0524,-0.0165 0.0965,-0.04 0.13229,-0.0717 0.0344,-0.0303 0.062,-0.0675 0.0799,-0.10886 0.0179,-0.0427 0.0262,-0.0909 0.0262,-0.14194 0,-0.10611 -0.0331,-0.18466 -0.10197,-0.2384 -0.0689,-0.0537 -0.17364,-0.0813 -0.31144,-0.0813 h -0.25907 z m 0,0.19016 v 0.74552 h -0.25907 v -1.80798 h 0.51814 c 0.11576,0 0.21497,0.0124 0.29903,0.0358 0.0841,0.0234 0.15434,0.0579 0.20947,0.10197 0.0537,0.0441 0.0951,0.0965 0.12126,0.15848 0.0262,0.062 0.0386,0.13229 0.0386,0.20808 0,0.0634 -0.01,0.12265 -0.0289,0.17914 -0.0207,0.0551 -0.0482,0.10474 -0.0868,0.14883 -0.0372,0.0441 -0.0827,0.0827 -0.13642,0.11438 -0.0551,0.0317 -0.11576,0.0551 -0.18466,0.0717 0.0331,0.0193 0.0606,0.0469 0.0841,0.0813 l 0.51539,0.70831 h -0.23151 c -0.0469,0 -0.0813,-0.0193 -0.10336,-0.0551 l -0.45337,-0.63389 c -0.0138,-0.0207 -0.0303,-0.0345 -0.0469,-0.0427 -0.0165,-0.01 -0.0413,-0.0138 -0.0758,-0.0138 h -0.17914"
       id="path1813" />
    <path
       inkscape:connector-curvature="0"
       style="fill:#7fb026;fill-opacity:1;fill-rule:nonzero;stroke:none;stroke-width:0.35277778"
       d="m -296.62855,136.10828 h -0.26045 v -1.80798 h 0.26045 v 1.80798"
       id="path1815" />
    <path
       inkscape:connector-curvature="0"
       style="fill:#7fb026;fill-opacity:1;fill-rule:nonzero;stroke:none;stroke-width:0.35277778"
       d="m -293.43564,134.3003 v 0.21773 h -0.57877 v 1.59025 h -0.25908 v -1.59025 h -0.57877 v -0.21773 h 1.41662"
       id="path1817" />
    <path
       inkscape:connector-curvature="0"
       style="fill:#7fb026;fill-opacity:1;fill-rule:nonzero;stroke:none;stroke-width:0.35277778"
       d="m -290.96757,135.39308 v 0.7152 h -0.25907 v -0.7152 l -0.66284,-1.09278 h 0.23013 c 0.0221,0 0.04,0.006 0.0538,0.0165 0.0138,0.011 0.0262,0.0262 0.0344,0.0441 l 0.39963,0.68351 c 0.0165,0.0317 0.0303,0.0606 0.0427,0.0868 0.0124,0.0275 0.0248,0.0551 0.0344,0.0813 0.01,-0.0262 0.0193,-0.0538 0.0317,-0.0813 0.0124,-0.0275 0.0262,-0.0565 0.0413,-0.0868 l 0.39825,-0.68351 c 0.008,-0.0152 0.0193,-0.0289 0.0331,-0.0413 0.0152,-0.0124 0.0331,-0.0193 0.0551,-0.0193 h 0.23014 l -0.66284,1.09279"
       id="path1819" />
    <path
       inkscape:connector-curvature="0"
       style="fill:#7fb026;fill-opacity:1;fill-rule:nonzero;stroke:none;stroke-width:0.35277778"
       d="m -285.33829,136.07934 c -0.10197,0.0331 -0.21497,0.0496 -0.33624,0.0496 -0.14607,0 -0.27698,-0.0234 -0.39412,-0.0689 -0.11851,-0.0455 -0.2191,-0.10886 -0.30179,-0.19017 -0.0827,-0.0813 -0.14745,-0.17914 -0.19154,-0.29214 -0.0455,-0.113 -0.0675,-0.2384 -0.0675,-0.37345 0,-0.1378 0.022,-0.2632 0.0648,-0.3762 0.0427,-0.113 0.10473,-0.21084 0.18603,-0.29215 0.0799,-0.0813 0.17777,-0.14331 0.29215,-0.18879 0.11438,-0.0441 0.24253,-0.0661 0.38447,-0.0661 0.0717,0 0.13918,0.004 0.19982,0.0165 0.062,0.01 0.11851,0.0262 0.17225,0.0455 0.0524,0.0193 0.1006,0.0441 0.14607,0.0717 0.0441,0.0276 0.0854,0.0593 0.12403,0.0951 l -0.073,0.11851 c -0.0124,0.0179 -0.0276,0.0303 -0.0468,0.0345 -0.0179,0.004 -0.0386,0 -0.0606,-0.0138 -0.022,-0.0124 -0.0455,-0.0262 -0.073,-0.0427 -0.0262,-0.0166 -0.0579,-0.0317 -0.0937,-0.0469 -0.0372,-0.0152 -0.0799,-0.0275 -0.12816,-0.0372 -0.0496,-0.011 -0.10748,-0.0165 -0.17638,-0.0165 -0.0992,0 -0.19017,0.0165 -0.2701,0.0496 -0.0813,0.0331 -0.15021,0.0786 -0.20671,0.13918 -0.0565,0.0606 -0.10059,0.13367 -0.13091,0.22049 -0.0303,0.0854 -0.0455,0.1819 -0.0455,0.28939 0,0.11162 0.0152,0.21222 0.0482,0.30041 0.0317,0.0882 0.0772,0.16261 0.13642,0.22462 0.0593,0.0606 0.13092,0.10749 0.21498,0.14056 0.0841,0.0317 0.17914,0.0482 0.28249,0.0482 0.0413,0 0.0786,-0.003 0.11438,-0.007 0.0358,-0.004 0.0689,-0.011 0.10198,-0.0207 0.0317,-0.008 0.0634,-0.0193 0.0937,-0.0317 0.0303,-0.0124 0.0606,-0.0262 0.091,-0.0413 v -0.38723 h -0.27147 c -0.0165,0 -0.0303,-0.004 -0.04,-0.0138 -0.011,-0.01 -0.0165,-0.0221 -0.0165,-0.0358 v -0.14745 h 0.56362 v 0.70004 c -0.0923,0.0648 -0.18879,0.11438 -0.29214,0.14607"
       id="path1821" />
    <path
       inkscape:connector-curvature="0"
       style="fill:#7fb026;fill-opacity:1;fill-rule:nonzero;stroke:none;stroke-width:0.35277778"
       d="m -282.91018,135.1726 h 0.24942 c 0.0689,0 0.13092,-0.008 0.18328,-0.0262 0.0537,-0.0165 0.0978,-0.04 0.13229,-0.0717 0.0358,-0.0303 0.062,-0.0675 0.0799,-0.10886 0.0179,-0.0427 0.0276,-0.0909 0.0276,-0.14194 0,-0.10611 -0.0344,-0.18466 -0.10335,-0.2384 -0.0689,-0.0537 -0.17226,-0.0813 -0.31144,-0.0813 h -0.25769 z m 0,0.19016 v 0.74552 h -0.25907 v -1.80798 h 0.51676 c 0.11576,0 0.21635,0.0124 0.30041,0.0358 0.0841,0.0234 0.15296,0.0579 0.20809,0.10197 0.0551,0.0441 0.0951,0.0965 0.12126,0.15848 0.0262,0.062 0.04,0.13229 0.04,0.20808 0,0.0634 -0.011,0.12265 -0.0303,0.17914 -0.0193,0.0551 -0.0482,0.10474 -0.0854,0.14883 -0.0372,0.0441 -0.0827,0.0827 -0.1378,0.11438 -0.0538,0.0317 -0.11576,0.0551 -0.18466,0.0717 0.0331,0.0193 0.062,0.0469 0.0854,0.0813 l 0.51401,0.70831 h -0.23151 c -0.0469,0 -0.0813,-0.0193 -0.10336,-0.0551 l -0.45337,-0.63389 c -0.0138,-0.0207 -0.0289,-0.0345 -0.0468,-0.0427 -0.0165,-0.01 -0.0414,-0.0138 -0.0744,-0.0138 h -0.17914"
       id="path1823" />
    <path
       inkscape:connector-curvature="0"
       style="fill:#7fb026;fill-opacity:1;fill-rule:nonzero;stroke:none;stroke-width:0.35277778"
       d="m -278.68099,135.20429 c 0,-0.10886 -0.0152,-0.2067 -0.0441,-0.29214 -0.0289,-0.0868 -0.0717,-0.15986 -0.12678,-0.22049 -0.0551,-0.0593 -0.12127,-0.10611 -0.19844,-0.1378 -0.0772,-0.0317 -0.16261,-0.0482 -0.25907,-0.0482 -0.0951,0 -0.1819,0.0165 -0.26045,0.0482 -0.0772,0.0317 -0.14331,0.0786 -0.19844,0.1378 -0.0551,0.0606 -0.0978,0.13367 -0.12815,0.22049 -0.0289,0.0854 -0.0441,0.18328 -0.0441,0.29214 0,0.10887 0.0152,0.20671 0.0441,0.29352 0.0303,0.0854 0.073,0.15848 0.12815,0.21911 0.0551,0.0593 0.12127,0.10473 0.19844,0.13643 0.0786,0.0317 0.16537,0.0482 0.26045,0.0482 0.0965,0 0.1819,-0.0165 0.25907,-0.0482 0.0772,-0.0317 0.14332,-0.0772 0.19844,-0.13643 0.0551,-0.0606 0.0978,-0.13367 0.12678,-0.21911 0.0289,-0.0868 0.0441,-0.18465 0.0441,-0.29352 z m 0.26597,0 c 0,0.13505 -0.022,0.25907 -0.0648,0.37207 -0.0427,0.113 -0.10335,0.21084 -0.1819,0.29215 -0.0785,0.0813 -0.17226,0.14469 -0.2825,0.19017 -0.11024,0.0455 -0.23151,0.0689 -0.36518,0.0689 -0.13367,0 -0.25494,-0.0234 -0.36518,-0.0689 -0.10886,-0.0455 -0.20395,-0.10887 -0.2825,-0.19017 -0.0786,-0.0813 -0.13918,-0.17915 -0.18328,-0.29215 -0.0427,-0.113 -0.0648,-0.23702 -0.0648,-0.37207 0,-0.13505 0.022,-0.25907 0.0648,-0.37207 0.0441,-0.113 0.10473,-0.21084 0.18328,-0.29214 0.0786,-0.0813 0.17364,-0.1447 0.2825,-0.19017 0.11024,-0.0469 0.23151,-0.0689 0.36518,-0.0689 0.13367,0 0.25494,0.022 0.36518,0.0689 0.11024,0.0455 0.20395,0.10886 0.2825,0.19017 0.0786,0.0813 0.13918,0.17914 0.1819,0.29214 0.0427,0.113 0.0648,0.23702 0.0648,0.37207"
       id="path1825" />
    <path
       inkscape:connector-curvature="0"
       style="fill:#7fb026;fill-opacity:1;fill-rule:nonzero;stroke:none;stroke-width:0.35277778"
       d="m -275.86152,135.9002 c 0.073,0 0.13918,-0.0124 0.19706,-0.0372 0.0565,-0.0248 0.10473,-0.0592 0.14607,-0.10335 0.0386,-0.0455 0.0703,-0.0978 0.091,-0.15985 0.0207,-0.062 0.0317,-0.12954 0.0317,-0.20395 v -1.09554 h 0.25908 v 1.09554 c 0,0.10473 -0.0165,0.20119 -0.051,0.29214 -0.0331,0.0896 -0.0813,0.16674 -0.14332,0.23289 -0.062,0.0648 -0.1378,0.11576 -0.22737,0.15296 -0.091,0.0372 -0.19155,0.0551 -0.30317,0.0551 -0.11162,0 -0.2136,-0.0179 -0.30317,-0.0551 -0.0882,-0.0372 -0.16399,-0.0882 -0.22738,-0.15296 -0.062,-0.0662 -0.11024,-0.14332 -0.14331,-0.23289 -0.0345,-0.091 -0.051,-0.18741 -0.051,-0.29214 v -1.09554 h 0.25907 v 1.09554 c 0,0.073 0.011,0.14056 0.0317,0.20257 0.0207,0.062 0.051,0.11576 0.091,0.15985 0.04,0.0455 0.0896,0.0799 0.14745,0.10473 0.0579,0.0248 0.12403,0.0372 0.19568,0.0372"
       id="path1827" />
    <path
       inkscape:connector-curvature="0"
       style="fill:#7fb026;fill-opacity:1;fill-rule:nonzero;stroke:none;stroke-width:0.35277778"
       d="m -272.93594,135.23323 h 0.28249 c 0.0689,0 0.12816,-0.01 0.18053,-0.0275 0.0537,-0.0179 0.0965,-0.0427 0.13229,-0.0758 0.0358,-0.0317 0.062,-0.0717 0.0799,-0.11576 0.0179,-0.0455 0.0276,-0.0965 0.0276,-0.15021 0,-0.0565 -0.01,-0.10611 -0.0262,-0.1502 -0.0165,-0.0441 -0.0427,-0.0827 -0.0786,-0.113 -0.0345,-0.0317 -0.0785,-0.0551 -0.13091,-0.0717 -0.0524,-0.0165 -0.113,-0.0248 -0.18466,-0.0248 h -0.2825 z m 0,0.20533 v 0.66972 h -0.25907 v -1.80798 h 0.54156 c 0.11576,0 0.21498,0.0138 0.30042,0.0413 0.0854,0.0262 0.15572,0.0648 0.21222,0.113 0.0551,0.0496 0.0978,0.10886 0.1254,0.17777 0.0275,0.0689 0.0413,0.14607 0.0413,0.23151 0,0.0841 -0.0152,0.16261 -0.0441,0.23289 -0.0289,0.0689 -0.073,0.12953 -0.12953,0.18052 -0.0579,0.0524 -0.12816,0.0909 -0.21222,0.11989 -0.0854,0.0275 -0.1819,0.0413 -0.29353,0.0413 h -0.28249"
       id="path1829" />
    <path
       inkscape:connector-curvature="0"
       style="fill:#7fb026;fill-opacity:1;fill-rule:nonzero;stroke:none;stroke-width:0.35277778"
       d="m -278.56523,130.6733 h 1.22094 v -5.06705 h -1.22094 v 5.06705"
       id="path1831" />
    <path
       inkscape:connector-curvature="0"
       style="fill:#7fb026;fill-opacity:1;fill-rule:nonzero;stroke:none;stroke-width:0.35277778"
       d="m -277.39665,122.51807 c -0.0717,-0.0689 -0.15434,-0.12402 -0.24943,-0.16536 -0.0951,-0.0413 -0.19706,-0.062 -0.30592,-0.062 -0.10611,0 -0.20533,0.0207 -0.29904,0.062 -0.0937,0.0413 -0.17639,0.0965 -0.24391,0.16536 -0.0703,0.0689 -0.1254,0.15159 -0.16674,0.24667 -0.0413,0.0965 -0.0606,0.19844 -0.0606,0.3073 0,0.10473 0.0193,0.20395 0.0606,0.29628 0.0413,0.091 0.0965,0.17226 0.16674,0.24116 0.0675,0.0689 0.15021,0.12402 0.24391,0.16536 0.0937,0.0413 0.19293,0.062 0.29904,0.062 0.10886,0 0.21084,-0.0207 0.30592,-0.062 0.0951,-0.0413 0.17777,-0.0965 0.24943,-0.16536 0.0703,-0.0689 0.12816,-0.15021 0.17087,-0.24116 0.0427,-0.0923 0.0634,-0.19155 0.0634,-0.29628 0,-0.10886 -0.0207,-0.21084 -0.0634,-0.3073 -0.0427,-0.0951 -0.10059,-0.17777 -0.17087,-0.24667"
       id="path1833" />
    <path
       inkscape:connector-curvature="0"
       style="fill:#879468;fill-opacity:1;fill-rule:nonzero;stroke:none;stroke-width:0.35277778"
       d="m -271.83213,121.12901 -8.99584,-15.97698 -1.50344,2.66789 7.49378,13.30909 h 3.0055"
       id="path1835" />
    <path
       inkscape:connector-curvature="0"
       style="fill:#879468;fill-opacity:1;fill-rule:nonzero;stroke:none;stroke-width:0.35277778"
       d="m -282.33141,113.31691 -1.54753,-2.74781 -5.94624,10.55991 h 3.09508 l 4.39869,-7.8121"
       id="path1837" />
    <path
       inkscape:connector-curvature="0"
       style="fill:#879468;fill-opacity:1;fill-rule:nonzero;stroke:none;stroke-width:0.35277778"
       d="m -292.99467,121.12901 10.58058,-18.79231 -2.57831,-4.580596 -13.16026,23.372906 h 5.15799"
       id="path1839" />
    <path
       inkscape:connector-curvature="0"
       style="fill:#879468;fill-opacity:1;fill-rule:nonzero;stroke:none;stroke-width:0.35277778"
       d="m -290.38466,98.64356 -3.57877,-6.471267 -16.30357,28.956717 h 7.22092 l 12.66142,-22.48545"
       id="path1841" />
    <path
       inkscape:connector-curvature="0"
       style="fill:#5c574c;fill-opacity:1;fill-rule:nonzero;stroke:none;stroke-width:0.35277778"
       d="m -303.13289,127.84557 c 0,0.27285 -0.0372,0.51952 -0.11162,0.74 -0.0744,0.22187 -0.18191,0.4079 -0.32109,0.56362 -0.14056,0.15434 -0.31143,0.27561 -0.51401,0.36105 -0.20257,0.0854 -0.43132,0.12816 -0.68901,0.12816 -0.25632,0 -0.48645,-0.0427 -0.68902,-0.12816 -0.2012,-0.0854 -0.37207,-0.20809 -0.50988,-0.3638 -0.13918,-0.15572 -0.24529,-0.34451 -0.3197,-0.565 -0.0744,-0.22049 -0.11162,-0.46715 -0.11162,-0.74139 v -4.27191 h -1.32843 v 4.27743 c 0,0.42443 0.0689,0.81717 0.20533,1.17684 0.1378,0.36105 0.3321,0.67249 0.58842,0.93431 0.25493,0.26183 0.56499,0.46578 0.93017,0.61185 0.36656,0.14745 0.77722,0.22049 1.23473,0.22049 0.4575,0 0.86954,-0.073 1.23472,-0.22049 0.36656,-0.14607 0.67661,-0.35002 0.93431,-0.61185 0.25631,-0.26182 0.45337,-0.57326 0.5898,-0.93431 0.13642,-0.35967 0.20533,-0.75241 0.20533,-1.17684 v -4.27743 h -1.32843 v 4.27743"
       id="path1843" />
    <path
       inkscape:connector-curvature="0"
       style="fill:#5c574c;fill-opacity:1;fill-rule:nonzero;stroke:none;stroke-width:0.35277778"
       d="m -292.70803,123.57365 c -0.0427,0.003 -0.0813,0.011 -0.11576,0.0248 -0.0345,0.0124 -0.0662,0.0345 -0.0937,0.0634 -0.0276,0.0303 -0.0551,0.0689 -0.0813,0.11851 l -2.11391,3.95635 c -0.0551,0.10473 -0.10887,0.21636 -0.15848,0.33073 -0.0482,0.11576 -0.0965,0.23289 -0.14193,0.3514 -0.0469,-0.11576 -0.0937,-0.23013 -0.14194,-0.34451 -0.0468,-0.113 -0.0992,-0.22186 -0.15572,-0.32797 l -2.1332,-3.966 c -0.0262,-0.0496 -0.0538,-0.0882 -0.0841,-0.11851 -0.0289,-0.0289 -0.0606,-0.051 -0.0965,-0.0634 -0.0344,-0.0138 -0.073,-0.022 -0.11575,-0.0248 -0.0427,-0.004 -0.0937,-0.006 -0.15296,-0.006 h -1.00321 v 7.14237 h 1.17133 v -4.61367 c 0,-0.0882 -0.003,-0.18466 -0.008,-0.28939 -0.004,-0.10335 -0.0138,-0.20946 -0.0262,-0.31833 l 2.18694,4.06522 c 0.0496,0.0923 0.11438,0.16398 0.19293,0.21497 0.0799,0.051 0.17225,0.0758 0.27698,0.0758 h 0.18328 c 0.10473,0 0.19706,-0.0248 0.27561,-0.0758 0.0799,-0.051 0.14332,-0.12265 0.19292,-0.21497 l 2.15801,-4.05006 c -0.01,0.10611 -0.0165,0.20946 -0.022,0.31144 -0.004,0.10197 -0.007,0.19568 -0.007,0.28112 v 4.61367 h 1.16996 v -7.14237 h -1.00321 c -0.0579,0 -0.11025,0.001 -0.15297,0.006"
       id="path1845" />
    <path
       inkscape:connector-curvature="0"
       style="fill:#5c574c;fill-opacity:1;fill-rule:nonzero;stroke:none;stroke-width:0.35277778"
       d="m -282.36586,123.57365 c -0.0427,0.003 -0.0813,0.011 -0.11575,0.0248 -0.0345,0.0124 -0.0661,0.0345 -0.0937,0.0634 -0.0276,0.0303 -0.0551,0.0689 -0.0813,0.11851 l -2.11391,3.95635 c -0.0565,0.10473 -0.10887,0.21636 -0.15848,0.33073 -0.0496,0.11576 -0.0965,0.23289 -0.14332,0.3514 -0.0455,-0.11576 -0.0923,-0.23013 -0.14055,-0.34451 -0.0482,-0.113 -0.0992,-0.22186 -0.15572,-0.32797 l -2.13321,-3.966 c -0.0262,-0.0496 -0.0537,-0.0882 -0.0841,-0.11851 -0.0303,-0.0289 -0.062,-0.051 -0.0965,-0.0634 -0.0345,-0.0138 -0.073,-0.022 -0.11575,-0.0248 -0.0427,-0.004 -0.0937,-0.006 -0.15297,-0.006 h -1.00321 v 7.14237 h 1.17133 v -4.61367 c 0,-0.0882 -0.003,-0.18466 -0.008,-0.28939 -0.004,-0.10335 -0.0138,-0.20946 -0.0276,-0.31833 l 2.18833,4.06522 c 0.0496,0.0923 0.11437,0.16398 0.19292,0.21497 0.0785,0.051 0.17088,0.0758 0.27699,0.0758 h 0.1819 c 0.10611,0 0.19844,-0.0248 0.27698,-0.0758 0.0786,-0.051 0.14332,-0.12265 0.19293,-0.21497 l 2.15801,-4.05006 c -0.01,0.10611 -0.0179,0.20946 -0.022,0.31144 -0.006,0.10197 -0.007,0.19568 -0.007,0.28112 v 4.61367 h 1.16996 v -7.14237 h -1.00322 c -0.0593,0 -0.11024,0.001 -0.15296,0.006"
       id="path1847" />
    <path
       inkscape:connector-curvature="0"
       style="fill:#5c574c;fill-opacity:1;fill-rule:nonzero;stroke:none;stroke-width:0.35277778"
       d="m -270.44721,123.56814 h -4.93475 v 1.0914 h 2.15801 v 6.05097 h 1.32843 v -6.05097 h 2.06292 l -0.61461,-1.0914"
       id="path1849" />
    <path
       inkscape:connector-curvature="0"
       style="fill:#5c574c;fill-opacity:1;fill-rule:nonzero;stroke:none;stroke-width:0.35277778"
       d="m -310.32901,127.191 c -0.15572,-0.14332 -0.33073,-0.26183 -0.52917,-0.35554 -0.19705,-0.0937 -0.39825,-0.17638 -0.60495,-0.24666 -0.20533,-0.0717 -0.40653,-0.13781 -0.60496,-0.19982 -0.19706,-0.0634 -0.37345,-0.13367 -0.52779,-0.2136 -0.15159,-0.0772 -0.27147,-0.16949 -0.36518,-0.27698 l -0.66973,1.18925 c 0.0992,0.0717 0.20533,0.13642 0.31833,0.19017 0.19706,0.0923 0.39825,0.17087 0.6022,0.23702 0.20395,0.0661 0.40514,0.1254 0.6022,0.1819 0.19844,0.0565 0.37483,0.1254 0.52917,0.20533 0.15434,0.0813 0.27836,0.18052 0.37345,0.29903 0.0937,0.11851 0.14056,0.27147 0.14056,0.45889 0,0.33624 -0.10335,0.59393 -0.31144,0.77308 -0.2067,0.17914 -0.50023,0.26872 -0.87919,0.26872 -0.24666,0 -0.45888,-0.0331 -0.63527,-0.1006 -0.17501,-0.0675 -0.32797,-0.14194 -0.45889,-0.22462 -0.12953,-0.0827 -0.24253,-0.1571 -0.33762,-0.22462 -0.0965,-0.0675 -0.18465,-0.10198 -0.26734,-0.10198 -0.062,0 -0.11989,0.0165 -0.17087,0.0469 -0.0496,0.0317 -0.0937,0.0703 -0.12954,0.11714 l -0.38585,0.63665 c 0.1378,0.14194 0.29628,0.2701 0.47129,0.38448 0.17639,0.11575 0.36656,0.21497 0.56913,0.29765 0.20119,0.0813 0.41341,0.14469 0.6339,0.19017 0.22048,0.0441 0.4451,0.0661 0.6711,0.0661 0.3955,0 0.74552,-0.0606 1.05282,-0.18053 0.30593,-0.11988 0.565,-0.28525 0.77722,-0.49333 0.21221,-0.20947 0.37482,-0.45476 0.48507,-0.73588 0.11024,-0.2825 0.16398,-0.58429 0.16398,-0.90675 0,-0.29627 -0.0469,-0.54846 -0.13918,-0.75516 -0.0951,-0.20809 -0.21911,-0.3831 -0.37345,-0.52641"
       id="path1851" />
    <path
       inkscape:connector-curvature="0"
       style="fill:#5c574c;fill-opacity:1;fill-rule:nonzero;stroke:none;stroke-width:0.35277778"
       d="m -311.47278,124.64714 c 0.15021,0.051 0.28112,0.10749 0.39274,0.17088 0.11162,0.062 0.20946,0.11851 0.29077,0.1695 0.0827,0.0524 0.15709,0.0772 0.22324,0.0772 0.0648,0 0.12264,-0.0152 0.1695,-0.0441 0.0482,-0.0303 0.0896,-0.0813 0.12678,-0.15296 l 0.32521,-0.62701 c -0.24942,-0.2384 -0.55259,-0.42168 -0.90812,-0.55397 -0.23978,-0.0882 -0.4961,-0.1447 -0.76481,-0.17363 l -0.60358,1.07211 c 0.0689,-0.008 0.13918,-0.0138 0.21772,-0.0138 0.20395,0 0.38034,0.0248 0.53055,0.0758"
       id="path1853" />
  </g>
</svg>
